{
  "accessors": [
    {
      "bufferView": 2,
      "componentType": 5126,
      "count": 17804,
      "max": [
        0.04056018963456154,
        0.04752077907323837,
        0.009680601768195629
      ],
      "min": [
        -0.04056019335985184,
        -0.04747100919485092,
        -0.010887004435062408
      ],
      "type": "VEC3"
    },
    {
      "bufferView": 2,
      "byteOffset": 213648,
      "componentType": 5126,
      "count": 17804,
      "max": [
        1.0,
        1.0,
        1.0
      ],
      "min": [
        -1.0,
        -1.0,
        -1.0
      ],
      "type": "VEC3"
    },
    {
      "bufferView": 1,
      "componentType": 5126,
      "count": 17804,
      "max": [
        0.9749990701675415,
        0.9873435497283936
      ],
      "min": [
        0.013760870322585106,
        0.01308212336152792
      ],
      "type": "VEC2"
    },
    {
      "bufferView": 0,
      "componentType": 5125,
      "count": 89184,
      "type": "SCALAR"
    }
  ],
  "asset": {
    "extras": {
      "author": "Miaru3d (https://sketchfab.com/miaru3d)",
      "license": "CC-BY-4.0 (http://creativecommons.org/licenses/by/4.0/)",
      "source": "https://sketchfab.com/3d-models/kirbys-tamagochi-a27e5e45bf904a55b24f0828120f95ce",
      "title": "Kirby's Tamagochi"
    },
    "generator": "Sketchfab-12.67.0",
    "version": "2.0"
  },
  "bufferViews": [
    {
      "buffer": 0,
      "byteLength": 356736,
      "name": "floatBufferViews",
      "target": 34963
    },
    {
      "buffer": 0,
      "byteLength": 142432,
      "byteOffset": 356736,
      "byteStride": 8,
      "name": "floatBufferViews",
      "target": 34962
    },
    {
      "buffer": 0,
      "byteLength": 427296,
      "byteOffset": 499168,
      "byteStride": 12,
      "name": "floatBufferViews",
      "target": 34962
    }
  ],
  "buffers": [
    {
      "byteLength": 926464,
      "uri": "scene.bin"
    }
  ],
  "images": [
    {
      "uri": "textures/Kirby_Tamagochi_baseColor.png"
    },
    {
      "uri": "textures/Kirby_Tamagochi_metallicRoughness.png"
    }
  ],
  "materials": [
    {
      "doubleSided": true,
      "name": "Kirby_Tamagochi",
      "pbrMetallicRoughness": {
        "baseColorTexture": {
          "index": 0
        },
        "metallicFactor": 0.044397865853658534,
        "metallicRoughnessTexture": {
          "index": 1
        },
        "roughnessFactor": 0.30659298780487804
      }
    }
  ],
  "meshes": [
    {
      "name": "Tamagochi_Kirby_Tamagochi_0",
      "primitives": [
        {
          "attributes": {
            "NORMAL": 1,
            "POSITION": 0,
            "TEXCOORD_0": 2
          },
          "indices": 3,
          "material": 0,
          "mode": 4
        }
      ]
    }
  ],
  "nodes": [
    {
      "children": [
        1
      ],
      "matrix": [
        1.0,
        0.0,
        0.0,
        0.0,
        0.0,
        2.220446049250313e-16,
        -1.0,
        0.0,
        0.0,
        1.0,
        2.220446049250313e-16,
        0.0,
        0.0,
        0.0,
        0.0,
        1.0
      ],
      "name": "Sketchfab_model"
    },
    {
      "children": [
        2
      ],
      "matrix": [
        1.0,
        0.0,
        0.0,
        0.0,
        0.0,
        0.0,
        1.0,
        0.0,
        0.0,
        -1.0,
        0.0,
        0.0,
        0.0,
        0.0,
        0.0,
        1.0
      ],
      "name": "5f4a45c67be644c2980e68ecc90a4b46.fbx"
    },
    {
      "children": [
        3
      ],
      "name": "RootNode"
    },
    {
      "children": [
        4
      ],
      "matrix": [
        100.0,
        -2.220446313948109e-14,
        -2.220446313948109e-14,
        0.0,
        2.2204464110068983e-14,
        99.9999999999999,
        4.371138828673792e-06,
        0.0,
        2.2204462168893158e-14,
        -4.371138828673792e-06,
        99.9999999999999,
        0.0,
        -1.479675291053196e-15,
        13.509023666381836,
        -6.6638617515563965,
        1.0
      ],
      "name": "Tamagochi"
    },
    {
      "mesh": 0,
      "name": "Tamagochi_Kirby_Tamagochi_0"
    }
  ],
  "samplers": [
    {
      "magFilter": 9729,
      "minFilter": 9987,
      "wrapS": 10497,
      "wrapT": 10497
    }
  ],
  "scene": 0,
  "scenes": [
    {
      "name": "Sketchfab_Scene",
      "nodes": [
        0
      ]
    }
  ],
  "textures": [
    {
      "sampler": 0,
      "source": 0
    },
    {
      "sampler": 0,
      "source": 1
    }
  ]
}
